<svg width="1200" height="900" viewBox="0 0 1200 900" fill="none" xmlns="http://www.w3.org/2000/svg">
  <defs>
    <linearGradient id="bg" x1="0" y1="0" x2="1" y2="1">
      <stop offset="0%" stop-color="#0b0b0c"/>
      <stop offset="100%" stop-color="#141214"/>
    </linearGradient>
    <radialGradient id="gold" cx="0" cy="0" r="1" gradientTransform="translate(320 240) rotate(40) scale(360 280)">
      <stop offset="0%" stop-color="#f6c762" stop-opacity="0.45"/>
      <stop offset="100%" stop-color="#f6c762" stop-opacity="0"/>
    </radialGradient>
    <radialGradient id="teal" cx="0" cy="0" r="1" gradientTransform="translate(900 660) rotate(20) scale(380 300)">
      <stop offset="0%" stop-color="#5eead4" stop-opacity="0.35"/>
      <stop offset="100%" stop-color="#5eead4" stop-opacity="0"/>
    </radialGradient>
  </defs>
  <rect width="1200" height="900" fill="url(#bg)"/>
  <rect width="1200" height="900" fill="url(#gold)"/>
  <rect width="1200" height="900" fill="url(#teal)"/>
  <rect x="120" y="140" width="960" height="620" rx="32" fill="#0f1012" stroke="rgba(255,255,255,0.08)" stroke-width="2"/>
  <rect x="180" y="220" width="360" height="36" rx="18" fill="rgba(255,255,255,0.12)"/>
  <rect x="180" y="280" width="520" height="18" rx="9" fill="rgba(255,255,255,0.08)"/>
  <rect x="180" y="320" width="420" height="18" rx="9" fill="rgba(255,255,255,0.06)"/>
  <rect x="180" y="380" width="200" height="120" rx="16" fill="rgba(246,199,98,0.18)"/>
  <rect x="400" y="380" width="200" height="120" rx="16" fill="rgba(94,234,212,0.18)"/>
  <rect x="620" y="380" width="360" height="120" rx="16" fill="rgba(255,255,255,0.06)"/>
  <rect x="180" y="540" width="800" height="32" rx="16" fill="rgba(255,255,255,0.07)"/>
  <rect x="180" y="590" width="680" height="20" rx="10" fill="rgba(255,255,255,0.05)"/>
</svg>
